<svg width="617" height="371" viewBox="0 0 617 371" fill="none" xmlns="http://www.w3.org/2000/svg">
<path d="M42.6534 348.121L79.0426 295.853L42.6349 353.807L42.6137 359.754C40.0187 359.732 37.4499 359.648 34.9073 359.501C34.8958 358.15 37.9887 283.856 37.8572 282.512C38.0367 282.461 38.1374 275.485 38.2086 275.18L0.192596 218.062L38.2495 269.774L38.3629 271.302L40.6206 213.58L7.94179 154.471L40.8791 203.438C40.8914 202.653 42.4381 84.1359 42.4533 83.4046C42.4626 83.7931 43.1725 177.721 43.1777 178.116L74.4312 140.309L43.1478 186.24L42.988 237.901L71.9909 187.945C35.7956 260.799 43.8058 235.304 42.8813 274.222L85.0098 204.661L42.8453 284.244L42.6534 348.121Z" fill="#D0CDE1"/>
<path d="M599.349 355.218L614.513 333.436L599.341 357.587L599.332 360.065C598.251 360.056 597.181 360.021 596.121 359.959C596.116 359.397 597.405 328.436 597.35 327.876C597.425 327.855 597.467 324.948 597.497 324.821L581.655 301.019L597.514 322.568L597.561 323.205L598.502 299.151L584.884 274.518L598.61 294.924C598.615 294.597 599.259 245.208 599.266 244.904C599.269 245.065 599.565 284.207 599.568 284.372L612.592 268.617L599.555 287.758L599.488 309.286L611.575 288.468C596.491 318.828 599.829 308.204 599.444 324.422L617 295.434L599.429 328.598L599.349 355.218Z" fill="#D0CDE1"/>
<path d="M307.492 371C477.314 371 614.983 365.608 614.983 358.956C614.983 352.305 477.314 346.913 307.492 346.913C137.669 346.913 0 352.305 0 358.956C0 365.608 137.669 371 307.492 371Z" fill="#D0CDE1"/>
<path d="M456.648 142.247H105.557V351.502H456.648V142.247Z" fill="#3F3D56"/>
<path d="M192.446 142.247C192.087 164.267 183.086 185.263 167.383 200.709C151.681 216.155 130.535 224.812 108.506 224.814C107.519 224.814 106.538 224.797 105.557 224.763V142.247H192.446Z" fill="#003041"/>
<path d="M298.277 351.501H264.885C266.141 348.086 268.416 345.137 271.401 343.055C274.387 340.972 277.94 339.855 281.581 339.855C285.221 339.855 288.774 340.972 291.76 343.055C294.746 345.137 297.02 348.086 298.277 351.501Z" fill="#003041"/>
<path d="M456.648 243.264V313.748C447.596 313.305 439.062 309.399 432.812 302.839C426.562 296.278 423.076 287.566 423.076 278.506C423.076 269.446 426.562 260.734 432.812 254.173C439.062 247.612 447.596 243.706 456.648 243.264Z" fill="#003041"/>
<path d="M392.149 218.285H170.664C164.951 218.285 160.32 222.914 160.32 228.626V228.626C160.32 234.337 164.951 238.967 170.664 238.967H392.149C397.862 238.967 402.493 234.337 402.493 228.626C402.493 222.914 397.862 218.285 392.149 218.285Z" fill="white"/>
<path d="M392.149 259.04H170.664C164.951 259.04 160.32 263.67 160.32 269.381V269.381C160.32 275.092 164.951 279.722 170.664 279.722H392.149C397.862 279.722 402.493 275.092 402.493 269.381C402.493 263.67 397.862 259.04 392.149 259.04Z" fill="white"/>
<path d="M392.149 299.796H327.931C322.218 299.796 317.587 304.426 317.587 310.137C317.587 315.848 322.218 320.478 327.931 320.478H392.149C397.862 320.478 402.493 315.848 402.493 310.137C402.493 304.426 397.862 299.796 392.149 299.796Z" fill="white"/>
<path d="M512.324 64.3012C512.324 64.3012 521.979 68.0545 522.515 80.3868C523.051 92.7191 519.833 127.035 519.833 127.035C519.833 127.035 531.633 144.193 522.515 149.019C513.397 153.844 512.324 129.716 512.324 129.716L501.597 78.7782C501.597 78.7782 508.034 63.765 512.324 64.3012Z" fill="#A0616A"/>
<path d="M413.636 103.979C413.636 103.979 390.573 118.992 389.5 107.196C388.428 95.4001 396.473 49.288 396.473 49.288C396.473 49.288 397.546 29.449 408.809 34.2747C420.072 39.1004 405.591 55.7222 405.591 55.7222L407.2 93.2553L417.927 92.7192L413.636 103.979Z" fill="#A0616A"/>
<path d="M450.644 117.92C450.644 117.92 379.846 91.6468 383.601 122.209C387.355 152.772 405.591 191.378 405.591 191.378L412.027 201.565H425.436L416.854 146.338C416.854 146.338 447.426 163.496 456.544 160.815C456.544 160.815 468.344 239.634 472.635 245.533C476.925 251.431 484.434 322.744 484.434 322.744L491.407 331.323H504.815V210.68C504.815 210.68 527.878 135.614 510.179 131.861C492.479 128.107 450.644 117.92 450.644 117.92Z" fill="#2F2E41"/>
<path d="M410.418 194.595C410.418 194.595 407.2 188.697 401.836 194.595C396.473 200.493 383.601 207.463 383.601 207.463C383.601 207.463 355.71 213.897 378.237 219.259C400.764 224.621 403.445 219.259 403.445 219.259C403.445 219.259 407.2 220.332 410.418 221.404C413.636 222.476 434.554 218.723 434.554 215.506C434.554 212.289 427.452 193.062 424.567 195.973C421.681 198.884 410.418 194.595 410.418 194.595Z" fill="#2F2E41"/>
<path d="M492.434 326.015C492.434 326.015 484.526 319.504 482.665 321.365C480.805 323.225 471.036 335.781 471.036 335.781C471.036 335.781 444.985 355.778 468.71 359.034C492.434 362.289 491.039 353.453 491.039 353.453H498.482C499.412 353.453 511.972 347.872 511.507 345.547C511.042 343.222 505.46 324.261 503.599 325.603C501.738 326.945 492.434 326.015 492.434 326.015Z" fill="#2F2E41"/>
<path d="M420.609 43.9261C430.68 43.9261 438.845 35.7641 438.845 25.6957C438.845 15.6273 430.68 7.46533 420.609 7.46533C410.537 7.46533 402.373 15.6273 402.373 25.6957C402.373 35.7641 410.537 43.9261 420.609 43.9261Z" fill="#A0616A"/>
<path d="M433.481 23.551C433.481 23.551 447.426 35.3471 457.08 35.3471C466.735 35.3471 443.135 57.3308 443.135 57.3308L422.218 38.5642L433.481 23.551Z" fill="#A0616A"/>
<path d="M438.845 57.3308L438.427 53.1065C438.427 53.1065 449.035 34.2747 452.253 32.6662C455.471 31.0576 457.617 31.0576 457.617 31.0576C457.617 31.0576 468.344 19.7977 480.143 25.6957C491.943 31.5938 519.833 69.1269 519.833 69.1269C519.833 69.1269 499.988 70.7355 502.67 86.2849C502.67 86.2849 522.515 137.223 517.151 137.759C511.788 138.295 495.698 134.542 479.071 142.048C462.444 149.555 454.935 144.729 454.935 144.729L446.353 116.848C446.353 116.848 430.263 107.732 430.799 99.6896L407.468 110.145L409.613 90.3063L423.827 73.9526C423.827 73.9526 421.145 71.8078 438.845 57.3308Z" fill="#575A89"/>
<path d="M403.834 27.6666C403.109 28.4719 402.201 29.0903 401.186 29.4695C400.147 29.7624 398.839 29.4033 398.425 28.407L399.196 27.4037L396.884 25.9677L397.892 24.7862L396.03 22.765L397.499 21.5994L394.701 19.599C398.328 13.6835 402.249 7.69389 407.974 3.77248C413.7 -0.148928 421.699 -1.54234 427.565 2.16678C430.61 4.09251 432.763 7.14895 434.488 10.3115C437.956 16.6719 441.014 22.8717 441.465 30.1019C439.286 27.9806 436.105 26.7853 433.926 24.664C432.962 23.6405 431.868 22.746 430.674 22.0026C428.395 20.7178 425.668 20.6041 423.117 20.0246C420.972 19.5372 419.579 18.5705 417.956 17.1886C416.026 15.5446 415.947 16.1802 413.997 18.0312C410.612 21.2453 407.224 24.4571 403.834 27.6666Z" fill="#2F2E41"/>
</svg>
